<svg width="1269" height="277" viewBox="0 0 1269 277" fill="none" xmlns="http://www.w3.org/2000/svg">
<path fill-rule="evenodd" clip-rule="evenodd" d="M253.113 151.557C253.113 82.8068 196.452 27.0735 126.557 27.0735C56.6613 27.0735 0 82.8068 0 151.557C0 220.307 56.6613 276.04 126.557 276.04C196.452 276.04 253.113 220.307 253.113 151.557ZM76.7084 216.944C72.1202 216.944 68.4005 213.335 68.4005 208.883V93.978C68.4005 89.6657 72.0032 86.169 76.4478 86.169C79.4452 86.169 82.1941 87.7852 83.5815 90.3633L126.557 170.218L169.532 90.3633C170.919 87.7852 173.668 86.169 176.666 86.169C181.109 86.169 184.712 89.6657 184.712 93.978V144.391C184.712 148.843 180.993 152.453 176.405 152.453C171.816 152.453 168.097 148.843 168.097 144.391V125.581L135.015 185.336C133.361 188.323 130.149 190.187 126.655 190.187C123.148 190.187 119.927 188.309 118.279 185.306L85.0168 124.686V208.883C85.0168 213.335 81.2967 216.944 76.7084 216.944ZM176.405 165.318C180.993 165.318 184.713 168.615 184.713 172.682V208.685C184.713 212.752 180.993 216.049 176.405 216.049C171.817 216.049 168.097 212.752 168.097 208.685V172.682C168.097 168.615 171.817 165.318 176.405 165.318Z" fill="#1C1C1C"/>
<path d="M337.153 266.218C333.288 266.218 329.329 265.901 325.279 265.267C321.322 264.723 317.502 263.909 313.821 262.823C310.231 261.736 307.01 260.378 304.156 258.749C302.131 257.662 300.704 256.258 299.876 254.538C299.048 252.728 298.725 250.917 298.909 249.107C299.186 247.296 299.876 245.712 300.981 244.353C302.177 242.905 303.65 242 305.399 241.638C307.239 241.185 309.265 241.502 311.473 242.589C315.247 244.67 319.343 246.21 323.761 247.205C328.271 248.202 332.735 248.7 337.153 248.7C343.872 248.7 348.658 247.703 351.512 245.712C354.364 243.629 355.791 241.049 355.791 237.971C355.791 235.346 354.779 233.263 352.754 231.724C350.729 230.185 347.185 228.872 342.123 227.786L326.522 224.527C317.686 222.716 311.105 219.638 306.779 215.293C302.546 210.856 300.428 205.062 300.428 197.91C300.428 193.384 301.395 189.264 303.328 185.553C305.26 181.84 307.975 178.627 311.473 175.91C314.971 173.195 319.113 171.112 323.899 169.664C328.777 168.215 334.116 167.491 339.914 167.491C345.069 167.491 350.13 168.125 355.101 169.392C360.071 170.569 364.443 172.334 368.217 174.688C370.057 175.775 371.3 177.178 371.944 178.898C372.681 180.528 372.911 182.202 372.635 183.923C372.451 185.553 371.76 187 370.564 188.268C369.46 189.535 368.033 190.35 366.284 190.713C364.535 191.075 362.418 190.667 359.933 189.491C356.896 187.951 353.674 186.82 350.269 186.095C346.863 185.371 343.366 185.009 339.776 185.009C335.911 185.009 332.597 185.507 329.836 186.503C327.166 187.498 325.095 188.902 323.623 190.713C322.242 192.523 321.552 194.606 321.552 196.96C321.552 199.585 322.519 201.713 324.451 203.342C326.384 204.972 329.744 206.284 334.529 207.28L350.131 210.539C359.151 212.441 365.87 215.518 370.288 219.774C374.706 223.939 376.915 229.461 376.915 236.342C376.915 240.868 375.994 244.987 374.153 248.7C372.312 252.321 369.644 255.444 366.146 258.07C362.648 260.695 358.46 262.732 353.582 264.181C348.704 265.538 343.227 266.218 337.153 266.218ZM427.117 266.218C419.845 266.218 413.494 264.814 408.064 262.008C402.726 259.201 398.584 255.172 395.638 249.922C392.693 244.67 391.221 238.469 391.221 231.317C391.221 225.976 392.049 221.177 393.706 216.922C395.362 212.667 397.756 209.046 400.885 206.058C404.106 202.98 407.926 200.671 412.344 199.132C416.761 197.502 421.686 196.688 427.117 196.688C434.388 196.688 440.692 198.091 446.031 200.898C451.461 203.704 455.649 207.687 458.595 212.848C461.631 218.009 463.15 224.164 463.15 231.317C463.15 236.749 462.276 241.592 460.527 245.848C458.871 250.103 456.478 253.769 453.348 256.848C450.219 259.925 446.399 262.279 441.889 263.909C437.471 265.448 432.547 266.218 427.117 266.218ZM427.117 250.872C430.154 250.872 432.777 250.148 434.986 248.7C437.195 247.251 438.944 245.123 440.232 242.316C441.521 239.42 442.165 235.753 442.165 231.317C442.165 224.708 440.784 219.865 438.023 216.786C435.262 213.618 431.626 212.034 427.117 212.034C424.171 212.034 421.548 212.712 419.247 214.071C417.038 215.428 415.289 217.556 414.001 220.453C412.804 223.259 412.206 226.881 412.206 231.317C412.206 237.926 413.586 242.86 416.348 246.119C419.109 249.288 422.699 250.872 427.117 250.872ZM505.795 266.218C497.604 266.218 491.482 263.999 487.433 259.563C483.383 255.036 481.359 248.337 481.359 239.465V178.219C481.359 174.779 482.232 172.199 483.982 170.479C485.822 168.667 488.446 167.762 491.851 167.762C495.164 167.762 497.696 168.667 499.444 170.479C501.285 172.199 502.206 174.779 502.206 178.219V238.65C502.206 242.362 502.988 245.123 504.553 246.934C506.209 248.654 508.373 249.514 511.041 249.514C511.778 249.514 512.468 249.469 513.112 249.378C513.757 249.288 514.447 249.242 515.184 249.242C516.656 249.061 517.668 249.514 518.22 250.601C518.865 251.596 519.187 253.633 519.187 256.712C519.187 259.427 518.635 261.51 517.531 262.959C516.426 264.316 514.723 265.221 512.422 265.674C511.501 265.765 510.443 265.855 509.246 265.946C508.05 266.127 506.899 266.218 505.795 266.218ZM557.844 266.218C552.138 266.218 547.397 265.176 543.624 263.094C539.85 261.012 537.043 257.888 535.203 253.724C533.453 249.469 532.579 244.218 532.579 237.971V207.28C532.579 203.84 533.453 201.259 535.203 199.539C537.043 197.819 539.62 196.96 542.934 196.96C546.247 196.96 548.824 197.819 550.665 199.539C552.506 201.259 553.427 203.84 553.427 207.28V238.515C553.427 242.497 554.255 245.485 555.911 247.477C557.568 249.378 560.191 250.329 563.781 250.329C567.739 250.329 570.96 248.971 573.445 246.255C576.022 243.448 577.311 239.782 577.311 235.255V207.28C577.311 203.84 578.186 201.259 579.934 199.539C581.775 197.819 584.352 196.96 587.665 196.96C591.071 196.96 593.648 197.819 595.397 199.539C597.238 201.259 598.158 203.84 598.158 207.28V255.489C598.158 262.46 594.799 265.946 588.08 265.946C584.766 265.946 582.235 265.04 580.486 263.23C578.738 261.419 577.863 258.839 577.863 255.489V246.39L579.934 251.687C577.909 256.304 575.01 259.88 571.236 262.415C567.463 264.95 562.998 266.218 557.844 266.218ZM653.084 266.218C646.733 266.218 641.395 265.176 637.069 263.094C632.835 261.012 629.659 257.979 627.543 253.996C625.517 250.012 624.505 244.987 624.505 238.922V213.391H618.706C616.129 213.391 614.105 212.712 612.631 211.354C611.251 209.997 610.561 208.14 610.561 205.787C610.561 203.252 611.251 201.35 612.631 200.083C614.105 198.725 616.129 198.046 618.706 198.046H624.505V187.725C624.505 184.285 625.425 181.704 627.266 179.984C629.107 178.174 631.684 177.269 634.998 177.269C638.404 177.269 640.98 178.174 642.729 179.984C644.478 181.704 645.352 184.285 645.352 187.725V198.046H658.468C661.045 198.046 663.024 198.725 664.405 200.083C665.786 201.35 666.475 203.252 666.475 205.787C666.475 208.14 665.786 209.997 664.405 211.354C663.024 212.712 661.045 213.391 658.468 213.391H645.352V238.107C645.352 241.909 646.227 244.761 647.975 246.663C649.816 248.564 652.716 249.514 656.673 249.514C658.054 249.514 659.343 249.378 660.539 249.107C661.736 248.835 662.84 248.654 663.852 248.564C665.141 248.473 666.199 248.88 667.028 249.786C667.857 250.601 668.27 252.457 668.27 255.353C668.27 257.526 667.902 259.427 667.166 261.057C666.43 262.686 665.141 263.864 663.3 264.588C662.104 265.04 660.447 265.403 658.33 265.674C656.305 266.036 654.557 266.218 653.084 266.218ZM693.802 265.81C690.397 265.81 687.773 264.86 685.933 262.959C684.184 260.966 683.31 258.205 683.31 254.675V208.231C683.31 204.609 684.184 201.849 685.933 199.947C687.773 197.955 690.397 196.96 693.802 196.96C697.115 196.96 699.647 197.955 701.395 199.947C703.237 201.849 704.157 204.609 704.157 208.231V254.675C704.157 258.205 703.282 260.966 701.534 262.959C699.785 264.86 697.207 265.81 693.802 265.81ZM693.802 185.824C689.936 185.824 686.945 184.964 684.828 183.243C682.803 181.433 681.791 178.898 681.791 175.639C681.791 172.289 682.803 169.754 684.828 168.034C686.945 166.223 689.936 165.318 693.802 165.318C697.668 165.318 700.613 166.223 702.638 168.034C704.663 169.754 705.676 172.289 705.676 175.639C705.676 178.898 704.663 181.433 702.638 183.243C700.613 184.964 697.668 185.824 693.802 185.824ZM758.356 266.218C751.084 266.218 744.733 264.814 739.303 262.008C733.964 259.201 729.823 255.172 726.877 249.922C723.933 244.67 722.459 238.469 722.459 231.317C722.459 225.976 723.288 221.177 724.945 216.922C726.601 212.667 728.995 209.046 732.124 206.058C735.346 202.98 739.165 200.671 743.583 199.132C748.001 197.502 752.926 196.688 758.356 196.688C765.627 196.688 771.931 198.091 777.27 200.898C782.7 203.704 786.889 207.687 789.831 212.848C792.874 218.009 794.392 224.164 794.392 231.317C794.392 236.749 793.519 241.592 791.765 245.848C790.114 250.103 787.715 253.769 784.588 256.848C781.458 259.925 777.638 262.279 773.128 263.909C768.711 265.448 763.786 266.218 758.356 266.218ZM758.356 250.872C761.393 250.872 764.016 250.148 766.225 248.7C768.435 247.251 770.183 245.123 771.471 242.316C772.76 239.42 773.404 235.753 773.404 231.317C773.404 224.708 772.023 219.865 769.263 216.786C766.501 213.618 762.865 212.034 758.356 212.034C755.41 212.034 752.787 212.712 750.487 214.071C748.277 215.428 746.528 217.556 745.24 220.453C744.043 223.259 743.445 226.881 743.445 231.317C743.445 237.926 744.825 242.86 747.587 246.119C750.348 249.288 753.938 250.872 758.356 250.872ZM823.092 265.946C819.686 265.946 817.059 265.04 815.219 263.23C813.473 261.419 812.6 258.839 812.6 255.489V207.28C812.6 203.93 813.473 201.396 815.219 199.676C817.059 197.865 819.592 196.96 822.816 196.96C826.128 196.96 828.66 197.865 830.406 199.676C832.152 201.396 833.033 203.93 833.033 207.28V215.021L831.515 210.539C833.631 206.103 836.761 202.708 840.898 200.354C845.137 197.91 849.919 196.688 855.26 196.688C860.687 196.688 865.154 197.729 868.654 199.812C872.146 201.803 874.773 204.881 876.519 209.046C878.265 213.12 879.146 218.325 879.146 224.663V255.489C879.146 258.839 878.226 261.419 876.385 263.23C874.631 265.04 872.059 265.946 868.654 265.946C865.335 265.946 862.763 265.04 860.923 263.23C859.169 261.419 858.296 258.839 858.296 255.489V225.613C858.296 220.996 857.423 217.692 855.669 215.7C854.017 213.618 851.437 212.576 847.937 212.576C843.525 212.576 839.978 213.935 837.312 216.65C834.732 219.367 833.442 222.988 833.442 227.515V255.489C833.442 262.46 829.989 265.946 823.092 265.946ZM926.179 266.218C922.136 266.218 917.944 265.855 913.618 265.131C909.387 264.406 905.517 263.184 902.025 261.464C900.185 260.559 898.848 259.427 898.022 258.07C897.283 256.621 896.96 255.172 897.054 253.724C897.141 252.275 897.605 250.962 898.431 249.786C899.351 248.608 900.499 247.839 901.884 247.477C903.354 247.024 904.967 247.16 906.713 247.885C910.488 249.423 913.941 250.51 917.071 251.144C920.201 251.777 923.284 252.094 926.32 252.094C930.276 252.094 933.131 251.506 934.877 250.329C936.718 249.061 937.638 247.432 937.638 245.44C937.638 243.629 937.04 242.272 935.845 241.366C934.649 240.461 932.903 239.827 930.599 239.465L916.104 236.885C910.401 235.889 905.981 233.852 902.851 230.774C899.815 227.605 898.297 223.576 898.297 218.687C898.297 214.161 899.579 210.268 902.159 207.009C904.739 203.659 908.278 201.124 912.792 199.404C917.393 197.593 922.592 196.688 928.389 196.688C932.534 196.688 936.356 197.05 939.848 197.775C943.348 198.498 946.706 199.676 949.931 201.305C951.583 202.12 952.739 203.206 953.384 204.564C954.115 205.923 954.343 207.326 954.068 208.774C953.887 210.222 953.337 211.536 952.416 212.712C951.496 213.889 950.301 214.659 948.822 215.021C947.446 215.383 945.833 215.202 943.993 214.478C941.044 213.12 938.33 212.169 935.845 211.626C933.359 210.992 930.969 210.675 928.664 210.675C924.527 210.675 921.538 211.354 919.69 212.712C917.85 213.98 916.929 215.609 916.929 217.601C916.929 219.14 917.441 220.453 918.447 221.539C919.556 222.535 921.216 223.214 923.418 223.576L937.921 226.157C943.899 227.152 948.46 229.144 951.583 232.131C954.713 235.029 956.278 239.012 956.278 244.082C956.278 250.962 953.518 256.395 947.996 260.378C942.569 264.271 935.294 266.218 926.179 266.218Z" fill="#1C1C1C"/>
<path d="M312.302 130.146C309.173 130.146 306.779 129.286 305.123 127.566C303.466 125.846 302.638 123.446 302.638 120.369V41.7401C302.638 38.6619 303.512 36.2627 305.26 34.5426C307.102 32.8225 309.587 31.9625 312.716 31.9625C315.477 31.9625 317.64 32.5056 319.205 33.5921C320.862 34.5879 322.38 36.3533 323.761 38.8883L355.653 96.1959H350.959L382.851 38.8883C384.232 36.3533 385.705 34.5879 387.269 33.5921C388.926 32.5056 391.089 31.9625 393.758 31.9625C396.887 31.9625 399.281 32.8225 400.937 34.5426C402.686 36.2627 403.561 38.6619 403.561 41.7401V120.369C403.561 123.446 402.732 125.846 401.075 127.566C399.419 129.286 397.026 130.146 393.896 130.146C390.767 130.146 388.328 129.286 386.579 127.566C384.922 125.846 384.094 123.446 384.094 120.369V65.3693H387.132L361.451 110.591C360.347 112.311 359.151 113.624 357.862 114.529C356.666 115.344 355.055 115.751 353.03 115.751C351.005 115.751 349.349 115.298 348.06 114.393C346.771 113.488 345.621 112.221 344.608 110.591L318.653 65.2334H321.966V120.369C321.966 123.446 321.138 125.846 319.481 127.566C317.916 129.286 315.524 130.146 312.302 130.146ZM437.52 130.01C434.115 130.01 431.492 129.059 429.651 127.158C427.902 125.166 427.028 122.406 427.028 118.874V72.4308C427.028 68.8095 427.902 66.0482 429.651 64.1471C431.492 62.1553 434.115 61.1594 437.52 61.1594C440.834 61.1594 443.365 62.1553 445.114 64.1471C446.955 66.0482 447.875 68.8095 447.875 72.4308V118.874C447.875 122.406 447.001 125.166 445.252 127.158C443.503 129.059 440.926 130.01 437.52 130.01ZM437.52 50.0238C433.655 50.0238 430.664 49.1638 428.546 47.4437C426.521 45.6329 425.509 43.098 425.509 39.8388C425.509 36.4891 426.521 33.9542 428.546 32.234C430.664 30.4233 433.655 29.518 437.52 29.518C441.386 29.518 444.332 30.4233 446.356 32.234C448.381 33.9542 449.393 36.4891 449.393 39.8388C449.393 43.098 448.381 45.6329 446.356 47.4437C444.332 49.1638 441.386 50.0238 437.52 50.0238ZM502.488 130.418C495.125 130.418 488.682 129.014 483.16 126.207C477.729 123.311 473.542 119.237 470.596 113.985C467.651 108.735 466.178 102.533 466.178 95.3811C466.178 90.0393 467.006 85.2409 468.663 80.9861C470.32 76.7312 472.713 73.1099 475.842 70.1222C479.064 67.1346 482.929 64.8713 487.44 63.3323C491.95 61.7027 496.966 60.8879 502.488 60.8879C505.341 60.8879 508.379 61.25 511.6 61.9742C514.822 62.608 517.997 63.7397 521.127 65.3693C522.968 66.1841 524.21 67.361 524.855 68.9C525.591 70.3486 525.867 71.8877 525.683 73.5173C525.499 75.0563 524.9 76.4596 523.888 77.727C522.968 78.9042 521.771 79.719 520.298 80.1712C518.825 80.5338 517.169 80.2617 515.328 79.3565C513.579 78.3608 511.738 77.6365 509.806 77.1839C507.964 76.7312 506.216 76.5048 504.559 76.5048C501.798 76.5048 499.359 76.9575 497.242 77.8628C495.125 78.6777 493.33 79.8999 491.858 81.5295C490.477 83.0687 489.372 85.0152 488.544 87.3692C487.808 89.7223 487.44 92.4389 487.44 95.5172C487.44 101.492 488.912 106.2 491.858 109.64C494.895 112.99 499.129 114.665 504.559 114.665C506.216 114.665 507.964 114.483 509.806 114.122C511.646 113.668 513.487 112.944 515.328 111.948C517.169 111.043 518.825 110.817 520.298 111.27C521.771 111.722 522.921 112.582 523.75 113.85C524.671 115.027 525.176 116.43 525.268 118.059C525.452 119.599 525.176 121.138 524.44 122.677C523.796 124.126 522.6 125.257 520.85 126.072C517.721 127.611 514.591 128.697 511.462 129.331C508.333 130.055 505.341 130.418 502.488 130.418ZM551.438 130.146C548.032 130.146 545.409 129.24 543.568 127.43C541.819 125.619 540.945 123.039 540.945 119.689V42.419C540.945 38.9788 541.819 36.3986 543.568 34.6784C545.409 32.8678 548.032 31.9625 551.438 31.9625C554.751 31.9625 557.282 32.8678 559.031 34.6784C560.872 36.3986 561.793 38.9788 561.793 42.419V74.7395H559.859C561.977 70.3033 565.105 66.9083 569.248 64.5545C573.482 62.1101 578.268 60.8879 583.606 60.8879C589.036 60.8879 593.501 61.9289 596.998 64.0112C600.496 66.0029 603.119 69.0811 604.867 73.2456C606.616 77.3196 607.491 82.5252 607.491 88.8627V119.689C607.491 123.039 606.571 125.619 604.729 127.43C602.981 129.24 600.404 130.146 596.998 130.146C593.685 130.146 591.107 129.24 589.267 127.43C587.518 125.619 586.643 123.039 586.643 119.689V89.8136C586.643 85.1961 585.769 81.8913 584.02 79.8999C582.364 77.8175 579.786 76.7765 576.289 76.7765C571.871 76.7765 568.327 78.1343 565.658 80.8508C563.081 83.5665 561.793 87.1875 561.793 91.7145V119.689C561.793 126.66 558.341 130.146 551.438 130.146ZM651.492 130.418C646.523 130.418 642.058 129.467 638.101 127.566C634.143 125.665 631.06 123.084 628.851 119.825C626.641 116.566 625.537 112.899 625.537 108.825C625.537 103.937 626.825 100.089 629.403 97.2821C631.98 94.3854 636.168 92.3484 641.966 91.1711C647.765 89.904 655.45 89.2701 665.023 89.2701H672.34V99.8625H665.161C660.466 99.8625 656.647 100.134 653.702 100.677C650.848 101.13 648.778 101.944 647.489 103.122C646.292 104.298 645.694 105.928 645.694 108.011C645.694 110.545 646.568 112.628 648.317 114.258C650.158 115.887 652.782 116.702 656.187 116.702C658.856 116.702 661.203 116.113 663.228 114.936C665.345 113.669 667.002 111.994 668.199 109.911C669.395 107.739 669.993 105.295 669.993 102.578V86.9618C669.993 82.9782 669.072 80.1712 667.232 78.5416C665.391 76.8217 662.261 75.9617 657.844 75.9617C655.358 75.9617 652.643 76.2785 649.698 76.9122C646.845 77.4554 643.669 78.4064 640.172 79.7639C638.147 80.6691 636.352 80.8956 634.787 80.4434C633.223 79.8999 632.026 78.9947 631.198 77.727C630.369 76.3691 629.955 74.9205 629.955 73.3814C629.955 71.7518 630.415 70.2128 631.336 68.7642C632.256 67.2251 633.775 66.0935 635.892 65.3693C640.218 63.6491 644.268 62.4722 648.041 61.8384C651.907 61.2047 655.45 60.8879 658.672 60.8879C665.759 60.8879 671.558 61.9289 676.068 64.0112C680.669 66.0029 684.121 69.1264 686.423 73.3814C688.723 77.546 689.874 82.9326 689.874 89.5415V119.689C689.874 123.039 689.046 125.619 687.389 127.43C685.732 129.24 683.339 130.146 680.209 130.146C677.08 130.146 674.641 129.24 672.893 127.43C671.235 125.619 670.407 123.039 670.407 119.689V114.665L671.374 115.48C670.822 118.557 669.625 121.228 667.784 123.492C666.035 125.665 663.78 127.385 661.019 128.652C658.258 129.829 655.082 130.418 651.492 130.418ZM735.385 130.418C727.193 130.418 721.073 128.2 717.022 123.763C712.973 119.237 710.948 112.537 710.948 103.665V42.419C710.948 38.9788 711.822 36.3986 713.571 34.6784C715.412 32.8678 718.035 31.9625 721.441 31.9625C724.755 31.9625 727.285 32.8678 729.034 34.6784C730.875 36.3986 731.795 38.9788 731.795 42.419V102.85C731.795 106.562 732.578 109.323 734.142 111.134C735.799 112.854 737.962 113.714 740.632 113.714C741.368 113.714 742.058 113.669 742.703 113.578C743.347 113.488 744.036 113.443 744.773 113.443C746.246 113.261 747.258 113.714 747.811 114.8C748.455 115.796 748.777 117.833 748.777 120.911C748.777 123.628 748.225 125.71 747.12 127.158C746.016 128.517 744.313 129.422 742.012 129.874C741.092 129.964 740.033 130.055 738.836 130.146C737.64 130.327 736.489 130.418 735.385 130.418ZM843.116 130.418C839.247 130.418 835.29 130.101 831.24 129.467C827.284 128.924 823.461 128.109 819.781 127.022C816.194 125.936 812.97 124.578 810.122 122.948C808.093 121.862 806.67 120.459 805.836 118.739C805.01 116.928 804.688 115.117 804.876 113.307C805.152 111.496 805.836 109.911 806.945 108.554C808.14 107.105 809.611 106.2 811.365 105.837C813.205 105.385 815.227 105.702 817.437 106.788C821.212 108.87 825.302 110.409 829.722 111.406C834.237 112.401 838.696 112.899 843.116 112.899C849.833 112.899 854.623 111.904 857.478 109.911C860.325 107.83 861.756 105.249 861.756 102.171C861.756 99.5456 860.742 97.4629 858.72 95.9246C856.691 94.3854 853.152 93.0728 848.087 91.9859L832.483 88.7267C823.65 86.9162 817.067 83.8379 812.741 79.4925C808.51 75.0563 806.394 69.2621 806.394 62.1101C806.394 57.5834 807.354 53.4641 809.289 49.7522C811.223 46.0403 813.937 42.8264 817.437 40.1105C820.937 37.3944 825.074 35.3122 829.864 33.8636C834.74 32.4151 840.08 31.6908 845.877 31.6908C851.028 31.6908 856.094 32.3246 861.064 33.5921C866.035 34.769 870.408 36.5344 874.183 38.8883C876.023 39.9746 877.266 41.3779 877.911 43.098C878.643 44.7276 878.871 46.4025 878.595 48.1226C878.414 49.7522 877.722 51.2008 876.527 52.4682C875.426 53.7357 873.994 54.5505 872.248 54.9126C870.494 55.2748 868.379 54.8674 865.893 53.6904C862.857 52.1513 859.641 51.0197 856.235 50.2955C852.83 49.5712 849.33 49.209 845.735 49.209C841.873 49.209 838.562 49.7069 835.802 50.7029C833.128 51.6987 831.059 53.102 829.588 54.9126C828.204 56.7233 827.512 58.8056 827.512 61.1594C827.512 63.7849 828.479 65.9124 830.414 67.542C832.349 69.1716 835.707 70.4843 840.489 71.4803L856.093 74.7395C865.115 76.6406 871.831 79.719 876.252 83.9739C880.672 88.1384 882.874 93.6611 882.874 100.541C882.874 105.068 881.954 109.187 880.113 112.899C878.273 116.52 875.607 119.644 872.107 122.27C868.615 124.895 864.423 126.932 859.546 128.381C854.67 129.739 849.188 130.418 843.116 130.418ZM844.217 26.9378C841.826 26.9378 839.616 26.4398 837.595 25.444C835.66 24.3575 833.914 22.7279 832.349 20.5552L823.509 8.46901C822.408 7.02043 822.038 5.61717 822.408 4.25916C822.864 2.9012 823.745 1.81479 825.027 0.999987C826.316 0.185183 827.748 -0.131683 829.313 0.0493806C830.87 0.139914 832.302 0.909447 833.592 2.35798L844.217 14.3084L854.992 2.35798C856.274 0.909447 857.706 0.139914 859.271 0.0493806C860.836 -0.131683 862.212 0.185183 863.408 0.999987C864.698 1.81479 865.531 2.9012 865.893 4.25916C866.357 5.52663 866.035 6.9299 864.926 8.46901L856.235 20.5552C854.67 22.7279 852.869 24.3575 850.847 25.444C848.913 26.4398 846.703 26.9378 844.217 26.9378ZM910.991 130.146C907.586 130.146 904.959 129.24 903.119 127.43C901.372 125.619 900.499 123.039 900.499 119.689V42.419C900.499 38.9788 901.372 36.3986 903.119 34.6784C904.959 32.8678 907.586 31.9625 910.991 31.9625C914.302 31.9625 916.835 32.8678 918.581 34.6784C920.421 36.3986 921.342 38.9788 921.342 42.419V89.8136H921.617L941.641 67.9494C943.663 65.6861 945.503 64.0112 947.163 62.9249C948.909 61.7479 951.213 61.1594 954.068 61.1594C956.915 61.1594 959.078 61.8837 960.557 63.3323C962.122 64.7807 962.901 66.5462 962.901 68.6285C962.995 70.6202 962.122 72.6572 960.274 74.7395L939.156 97.9616V90.221L962.625 116.837C964.371 118.92 965.111 121.002 964.835 123.084C964.647 125.166 963.727 126.887 962.075 128.244C960.415 129.512 958.299 130.146 955.72 130.146C952.589 130.146 950.057 129.557 948.13 128.381C946.29 127.203 944.402 125.393 942.467 122.948L921.617 100.134H921.342V119.689C921.342 126.66 917.889 130.146 910.991 130.146ZM1014.51 130.418C1007.24 130.418 1000.89 129.014 995.454 126.207C990.121 123.401 985.977 119.372 983.027 114.122C980.086 108.87 978.615 102.669 978.615 95.5172C978.615 90.1754 979.441 85.377 981.1 81.1221C982.752 76.867 985.151 73.2456 988.281 70.2581C991.498 67.1799 995.32 64.8713 999.74 63.3323C1004.15 61.7027 1009.08 60.8879 1014.51 60.8879C1021.78 60.8879 1028.09 62.2911 1033.43 65.0976C1038.85 67.9042 1043.05 71.8877 1045.99 77.048C1049.02 82.2083 1050.54 88.3649 1050.54 95.5172C1050.54 100.949 1049.67 105.793 1047.92 110.048C1046.26 114.302 1043.87 117.969 1040.74 121.047C1037.61 124.126 1033.79 126.48 1029.28 128.109C1024.86 129.648 1019.94 130.418 1014.51 130.418ZM1014.51 115.072C1017.55 115.072 1020.17 114.348 1022.38 112.899C1024.59 111.451 1026.34 109.323 1027.62 106.517C1028.91 103.62 1029.56 99.953 1029.56 95.5172C1029.56 88.9075 1028.18 84.0644 1025.42 80.9861C1022.65 77.8175 1019.02 76.2332 1014.51 76.2332C1011.56 76.2332 1008.94 76.9122 1006.64 78.2703C1004.43 79.6286 1002.68 81.756 1001.39 84.6527C1000.2 87.4596 999.599 91.0806 999.599 95.5172C999.599 102.126 1000.98 107.06 1003.74 110.319C1006.5 113.488 1010.09 115.072 1014.51 115.072ZM1093.74 130.418C1088.03 130.418 1083.29 129.376 1079.52 127.294C1075.75 125.212 1072.94 122.089 1071.1 117.924C1069.35 113.669 1068.47 108.418 1068.47 102.171V71.4803C1068.47 68.0399 1069.35 65.4598 1071.1 63.7397C1072.94 62.0195 1075.51 61.1594 1078.83 61.1594C1082.14 61.1594 1084.72 62.0195 1086.56 63.7397C1088.4 65.4598 1089.32 68.0399 1089.32 71.4803V102.714C1089.32 106.698 1090.15 109.685 1091.81 111.677C1093.46 113.578 1096.09 114.529 1099.67 114.529C1103.64 114.529 1106.85 113.171 1109.34 110.455C1111.92 107.648 1113.21 103.981 1113.21 99.4551V71.4803C1113.21 68.0399 1114.08 65.4598 1115.83 63.7397C1117.67 62.0195 1120.25 61.1594 1123.56 61.1594C1126.97 61.1594 1129.54 62.0195 1131.29 63.7397C1133.13 65.4598 1134.05 68.0399 1134.05 71.4803V119.689C1134.05 126.66 1130.69 130.146 1123.98 130.146C1120.67 130.146 1118.13 129.24 1116.38 127.43C1114.63 125.619 1113.76 123.039 1113.76 119.689V110.591L1115.83 115.887C1113.81 120.504 1110.9 124.08 1107.13 126.615C1103.36 129.15 1098.89 130.418 1093.74 130.418ZM1180.14 130.418C1171.95 130.418 1165.83 128.2 1161.78 123.763C1157.73 119.237 1155.7 112.537 1155.7 103.665V42.419C1155.7 38.9788 1156.58 36.3986 1158.33 34.6784C1160.17 32.8678 1162.79 31.9625 1166.2 31.9625C1169.52 31.9625 1172.05 32.8678 1173.79 34.6784C1175.63 36.3986 1176.55 38.9788 1176.55 42.419V102.85C1176.55 106.562 1177.33 109.323 1178.9 111.134C1180.56 112.854 1182.72 113.714 1185.39 113.714C1186.13 113.714 1186.82 113.669 1187.46 113.578C1188.11 113.488 1188.79 113.443 1189.53 113.443C1191 113.261 1192.02 113.714 1192.57 114.8C1193.21 115.796 1193.53 117.833 1193.53 120.911C1193.53 123.628 1192.98 125.71 1191.88 127.158C1190.77 128.517 1189.08 129.422 1186.77 129.874C1185.85 129.964 1184.79 130.055 1183.59 130.146C1182.4 130.327 1181.25 130.418 1180.14 130.418ZM1230.12 130.418C1225.15 130.418 1220.68 129.467 1216.73 127.566C1212.77 125.665 1209.69 123.084 1207.48 119.825C1205.27 116.566 1204.17 112.899 1204.17 108.825C1204.17 103.937 1205.46 100.089 1208.03 97.2821C1210.61 94.3854 1214.79 92.3484 1220.6 91.1711C1226.39 89.904 1234.08 89.2701 1243.65 89.2701H1250.97V99.8625H1243.79C1239.1 99.8625 1235.27 100.134 1232.33 100.677C1229.48 101.13 1227.41 101.944 1226.12 103.122C1224.92 104.298 1224.33 105.928 1224.33 108.011C1224.33 110.545 1225.2 112.628 1226.95 114.258C1228.79 115.887 1231.41 116.702 1234.82 116.702C1237.48 116.702 1239.83 116.113 1241.86 114.936C1243.97 113.669 1245.63 111.994 1246.83 109.911C1248.02 107.739 1248.62 105.295 1248.62 102.578V86.9618C1248.62 82.9782 1247.7 80.1712 1245.86 78.5416C1244.02 76.8217 1240.89 75.9617 1236.47 75.9617C1233.98 75.9617 1231.27 76.2785 1228.33 76.9122C1225.47 77.4554 1222.3 78.4064 1218.8 79.7639C1216.78 80.6691 1214.98 80.8956 1213.42 80.4434C1211.85 79.8999 1210.66 78.9947 1209.82 77.727C1209 76.3691 1208.58 74.9205 1208.58 73.3814C1208.58 71.7518 1209.04 70.2128 1209.96 68.7642C1210.89 67.2251 1212.4 66.0935 1214.52 65.3693C1218.84 63.6491 1222.89 62.4722 1226.67 61.8384C1230.54 61.2047 1234.08 60.8879 1237.3 60.8879C1244.39 60.8879 1250.19 61.9289 1254.69 64.0112C1259.3 66.0029 1262.75 69.1264 1265.05 73.3814C1267.36 77.546 1268.5 82.9326 1268.5 89.5415V119.689C1268.5 123.039 1267.68 125.619 1266.02 127.43C1264.36 129.24 1261.97 130.146 1258.84 130.146C1255.71 130.146 1253.27 129.24 1251.52 127.43C1249.86 125.619 1249.04 123.039 1249.04 119.689V114.665L1250.01 115.48C1249.45 118.557 1248.25 121.228 1246.41 123.492C1244.67 125.665 1242.41 127.385 1239.65 128.652C1236.89 129.829 1233.71 130.418 1230.12 130.418Z" fill="#1C1C1C"/>
</svg>
