<svg width="366" height="360" viewBox="0 0 366 360" fill="none" xmlns="http://www.w3.org/2000/svg">
<path fill-rule="evenodd" clip-rule="evenodd" d="M366 180C366 80.589 284.068 0 183 0C81.9319 0 0 80.589 0 180C0 279.412 81.9319 360 183 360C284.068 360 366 279.412 366 180ZM110.92 274.549C104.285 274.549 98.9067 269.33 98.9067 262.892V96.7424C98.9067 90.5069 104.116 85.4507 110.543 85.4507C114.877 85.4507 118.852 87.7877 120.858 91.5156L183 206.984L245.142 91.5156C247.149 87.7877 251.123 85.4507 255.458 85.4507C261.883 85.4507 267.093 90.5069 267.093 96.7424V169.638C267.093 176.076 261.715 181.295 255.08 181.295C248.445 181.295 243.067 176.076 243.067 169.638V165.752V142.439L195.231 228.844C192.839 233.164 188.194 235.858 183.143 235.858C178.071 235.858 173.413 233.143 171.031 228.8L122.934 141.145V262.892C122.934 269.33 117.555 274.549 110.92 274.549ZM255.08 199.898C261.715 199.898 267.094 204.665 267.094 210.546V262.606C267.094 268.486 261.715 273.254 255.08 273.254C248.446 273.254 243.067 268.486 243.067 262.606V210.546C243.067 204.665 248.446 199.898 255.08 199.898Z" fill="#0A4EBD"/>
</svg>
