<svg width="1270" height="277" viewBox="0 0 1270 277" fill="none" xmlns="http://www.w3.org/2000/svg">
<path fill-rule="evenodd" clip-rule="evenodd" d="M253.898 152.132C253.898 83.382 197.237 27.6487 127.342 27.6487C57.4464 27.6487 0.785156 83.382 0.785156 152.132C0.785156 220.883 57.4464 276.615 127.342 276.615C197.237 276.615 253.898 220.883 253.898 152.132ZM77.4936 217.52C72.9054 217.52 69.1856 213.91 69.1856 209.458V94.5532C69.1856 90.2409 72.7883 86.7442 77.2329 86.7442C80.2304 86.7442 82.9792 88.3604 84.3666 90.9385L127.342 170.794L170.317 90.9385C171.705 88.3604 174.453 86.7442 177.451 86.7442C181.895 86.7442 185.498 90.2409 185.498 94.5532V144.966C185.498 149.419 181.778 153.028 177.19 153.028C172.601 153.028 168.882 149.419 168.882 144.966V126.156L135.8 185.911C134.146 188.899 130.934 190.762 127.44 190.762C123.933 190.762 120.712 188.884 119.064 185.881L85.802 125.261V209.458C85.802 213.91 82.0818 217.52 77.4936 217.52ZM177.19 165.893C181.778 165.893 185.498 169.19 185.498 173.257V209.26C185.498 213.327 181.778 216.624 177.19 216.624C172.602 216.624 168.882 213.327 168.882 209.26V173.257C168.882 169.19 172.602 165.893 177.19 165.893Z" fill="#0A4EBD"/>
<path d="M337.938 266.793C334.073 266.793 330.114 266.476 326.065 265.842C322.107 265.299 318.288 264.484 314.606 263.398C311.016 262.312 307.795 260.953 304.941 259.324C302.916 258.238 301.489 256.834 300.661 255.114C299.833 253.303 299.511 251.493 299.695 249.682C299.971 247.871 300.661 246.287 301.766 244.929C302.963 243.48 304.435 242.575 306.184 242.213C308.025 241.76 310.05 242.077 312.258 243.164C316.033 245.246 320.128 246.785 324.546 247.78C329.056 248.777 333.52 249.275 337.938 249.275C344.657 249.275 349.443 248.278 352.297 246.287C355.149 244.204 356.576 241.625 356.576 238.546C356.576 235.921 355.564 233.838 353.539 232.299C351.514 230.76 347.97 229.447 342.908 228.361L327.307 225.102C318.472 223.292 311.89 220.213 307.564 215.868C303.331 211.431 301.213 205.637 301.213 198.485C301.213 193.959 302.18 189.839 304.113 186.128C306.046 182.416 308.761 179.202 312.258 176.485C315.756 173.77 319.898 171.687 324.684 170.239C329.562 168.79 334.901 168.066 340.699 168.066C345.854 168.066 350.916 168.7 355.886 169.967C360.856 171.144 365.228 172.909 369.002 175.263C370.842 176.35 372.085 177.753 372.729 179.473C373.466 181.103 373.696 182.777 373.42 184.498C373.236 186.128 372.545 187.576 371.349 188.844C370.245 190.111 368.818 190.925 367.069 191.288C365.32 191.65 363.203 191.242 360.718 190.066C357.681 188.527 354.46 187.395 351.054 186.67C347.649 185.946 344.151 185.584 340.561 185.584C336.696 185.584 333.382 186.082 330.621 187.078C327.951 188.074 325.88 189.477 324.408 191.288C323.027 193.098 322.337 195.181 322.337 197.535C322.337 200.16 323.304 202.288 325.236 203.917C327.17 205.547 330.529 206.86 335.315 207.855L350.916 211.114C359.936 213.016 366.655 216.094 371.073 220.349C375.491 224.514 377.7 230.036 377.7 236.917C377.7 241.443 376.779 245.563 374.939 249.275C373.097 252.896 370.429 256.019 366.931 258.645C363.434 261.27 359.246 263.307 354.368 264.756C349.489 266.113 344.013 266.793 337.938 266.793ZM427.902 266.793C420.631 266.793 414.279 265.389 408.849 262.583C403.511 259.776 399.369 255.748 396.423 250.497C393.478 245.246 392.006 239.044 392.006 231.892C392.006 226.551 392.834 221.752 394.491 217.498C396.147 213.242 398.541 209.621 401.67 206.633C404.891 203.555 408.711 201.246 413.129 199.707C417.547 198.078 422.471 197.263 427.902 197.263C435.173 197.263 441.478 198.666 446.816 201.473C452.246 204.279 456.434 208.263 459.38 213.424C462.417 218.584 463.935 224.74 463.935 231.892C463.935 237.324 463.062 242.167 461.312 246.423C459.656 250.678 457.263 254.344 454.133 257.423C451.004 260.5 447.184 262.854 442.674 264.484C438.256 266.023 433.332 266.793 427.902 266.793ZM427.902 251.447C430.939 251.447 433.562 250.723 435.771 249.275C437.98 247.826 439.729 245.699 441.017 242.892C442.306 239.995 442.951 236.328 442.951 231.892C442.951 225.283 441.57 220.44 438.808 217.362C436.048 214.193 432.412 212.609 427.902 212.609C424.956 212.609 422.333 213.288 420.032 214.646C417.823 216.003 416.074 218.131 414.786 221.028C413.589 223.834 412.991 227.456 412.991 231.892C412.991 238.501 414.372 243.435 417.133 246.694C419.894 249.863 423.484 251.447 427.902 251.447ZM506.58 266.793C498.389 266.793 492.268 264.574 488.218 260.139C484.168 255.611 482.144 248.912 482.144 240.04V178.795C482.144 175.354 483.017 172.774 484.767 171.054C486.607 169.243 489.231 168.337 492.636 168.337C495.949 168.337 498.481 169.243 500.229 171.054C502.071 172.774 502.991 175.354 502.991 178.795V239.225C502.991 242.937 503.773 245.699 505.338 247.509C506.994 249.229 509.158 250.09 511.826 250.09C512.563 250.09 513.253 250.044 513.897 249.954C514.542 249.863 515.232 249.817 515.969 249.817C517.441 249.637 518.453 250.09 519.005 251.176C519.65 252.171 519.972 254.208 519.972 257.287C519.972 260.002 519.42 262.085 518.316 263.534C517.211 264.891 515.508 265.797 513.207 266.25C512.286 266.34 511.229 266.43 510.032 266.521C508.835 266.702 507.685 266.793 506.58 266.793ZM558.63 266.793C552.923 266.793 548.182 265.752 544.409 263.669C540.635 261.587 537.828 258.463 535.988 254.299C534.238 250.044 533.364 244.793 533.364 238.546V207.855C533.364 204.415 534.238 201.835 535.988 200.115C537.828 198.395 540.406 197.535 543.719 197.535C547.033 197.535 549.609 198.395 551.45 200.115C553.291 201.835 554.212 204.415 554.212 207.855V239.09C554.212 243.073 555.04 246.06 556.696 248.053C558.354 249.954 560.976 250.904 564.566 250.904C568.524 250.904 571.745 249.546 574.231 246.83C576.807 244.023 578.096 240.357 578.096 235.831V207.855C578.096 204.415 578.971 201.835 580.719 200.115C582.56 198.395 585.137 197.535 588.451 197.535C591.856 197.535 594.434 198.395 596.182 200.115C598.023 201.835 598.943 204.415 598.943 207.855V256.064C598.943 263.035 595.584 266.521 588.865 266.521C585.552 266.521 583.021 265.616 581.271 263.805C579.523 261.995 578.648 259.414 578.648 256.064V246.966L580.719 252.262C578.694 256.879 575.795 260.455 572.021 262.99C568.248 265.525 563.783 266.793 558.63 266.793ZM653.869 266.793C647.518 266.793 642.18 265.752 637.854 263.669C633.62 261.587 630.444 258.554 628.328 254.571C626.303 250.587 625.29 245.563 625.29 239.497V213.966H619.492C616.914 213.966 614.89 213.288 613.417 211.929C612.036 210.572 611.346 208.716 611.346 206.362C611.346 203.827 612.036 201.925 613.417 200.658C614.89 199.3 616.914 198.621 619.492 198.621H625.29V188.3C625.29 184.86 626.211 182.279 628.051 180.559C629.892 178.749 632.47 177.844 635.783 177.844C639.189 177.844 641.765 178.749 643.514 180.559C645.263 182.279 646.137 184.86 646.137 188.3V198.621H659.253C661.831 198.621 663.809 199.3 665.19 200.658C666.571 201.925 667.261 203.827 667.261 206.362C667.261 208.716 666.571 210.572 665.19 211.929C663.809 213.288 661.831 213.966 659.253 213.966H646.137V238.682C646.137 242.484 647.012 245.336 648.76 247.238C650.602 249.139 653.501 250.09 657.458 250.09C658.84 250.09 660.128 249.954 661.324 249.682C662.521 249.41 663.625 249.229 664.638 249.139C665.926 249.048 666.984 249.456 667.813 250.361C668.642 251.176 669.055 253.032 669.055 255.928C669.055 258.102 668.687 260.002 667.951 261.632C667.215 263.262 665.926 264.439 664.085 265.163C662.889 265.616 661.232 265.978 659.116 266.25C657.09 266.611 655.342 266.793 653.869 266.793ZM694.587 266.386C691.182 266.386 688.558 265.435 686.718 263.534C684.969 261.542 684.095 258.78 684.095 255.25V208.806C684.095 205.184 684.969 202.424 686.718 200.522C688.558 198.531 691.182 197.535 694.587 197.535C697.9 197.535 700.432 198.531 702.181 200.522C704.022 202.424 704.942 205.184 704.942 208.806V255.25C704.942 258.78 704.067 261.542 702.319 263.534C700.57 265.435 697.992 266.386 694.587 266.386ZM694.587 186.399C690.721 186.399 687.73 185.539 685.613 183.819C683.588 182.008 682.576 179.473 682.576 176.214C682.576 172.864 683.588 170.33 685.613 168.61C687.73 166.798 690.721 165.893 694.587 165.893C698.453 165.893 701.398 166.798 703.423 168.61C705.448 170.33 706.461 172.864 706.461 176.214C706.461 179.473 705.448 182.008 703.423 183.819C701.398 185.539 698.453 186.399 694.587 186.399ZM759.141 266.793C751.869 266.793 745.518 265.389 740.088 262.583C734.75 259.776 730.608 255.748 727.662 250.497C724.718 245.246 723.245 239.044 723.245 231.892C723.245 226.551 724.073 221.752 725.73 217.498C727.386 213.242 729.78 209.621 732.909 206.633C736.131 203.555 739.95 201.246 744.369 199.707C748.786 198.078 753.711 197.263 759.141 197.263C766.412 197.263 772.716 198.666 778.055 201.473C783.485 204.279 787.674 208.263 790.616 213.424C793.659 218.584 795.177 224.74 795.177 231.892C795.177 237.324 794.304 242.167 792.551 246.423C790.899 250.678 788.5 254.344 785.373 257.423C782.243 260.5 778.423 262.854 773.914 264.484C769.496 266.023 764.571 266.793 759.141 266.793ZM759.141 251.447C762.178 251.447 764.801 250.723 767.01 249.275C769.22 247.826 770.968 245.699 772.256 242.892C773.545 239.995 774.19 236.328 774.19 231.892C774.19 225.283 772.808 220.44 770.048 217.362C767.286 214.193 763.651 212.609 759.141 212.609C756.195 212.609 753.572 213.288 751.272 214.646C749.062 216.003 747.313 218.131 746.025 221.028C744.829 223.834 744.23 227.456 744.23 231.892C744.23 238.501 745.61 243.435 748.372 246.694C751.133 249.863 754.723 251.447 759.141 251.447ZM823.877 266.521C820.471 266.521 817.844 265.616 816.004 263.805C814.258 261.995 813.385 259.414 813.385 256.064V207.855C813.385 204.506 814.258 201.971 816.004 200.251C817.844 198.44 820.377 197.535 823.602 197.535C826.913 197.535 829.445 198.44 831.191 200.251C832.937 201.971 833.818 204.506 833.818 207.855V215.596L832.3 211.114C834.416 206.679 837.546 203.283 841.683 200.929C845.923 198.485 850.705 197.263 856.045 197.263C861.472 197.263 865.939 198.304 869.439 200.387C872.931 202.378 875.558 205.456 877.304 209.621C879.05 213.695 879.931 218.901 879.931 225.238V256.064C879.931 259.414 879.011 261.995 877.17 263.805C875.416 265.616 872.845 266.521 869.439 266.521C866.12 266.521 863.548 265.616 861.708 263.805C859.954 261.995 859.081 259.414 859.081 256.064V226.188C859.081 221.572 858.208 218.267 856.454 216.275C854.802 214.193 852.222 213.151 848.723 213.151C844.31 213.151 840.763 214.51 838.097 217.225C835.517 219.942 834.227 223.563 834.227 228.09V256.064C834.227 263.035 830.775 266.521 823.877 266.521ZM926.964 266.793C922.921 266.793 918.729 266.43 914.403 265.706C910.172 264.982 906.302 263.759 902.81 262.039C900.97 261.134 899.633 260.002 898.807 258.645C898.068 257.196 897.745 255.748 897.84 254.299C897.926 252.85 898.39 251.538 899.216 250.361C900.136 249.184 901.285 248.414 902.669 248.053C904.14 247.6 905.752 247.736 907.498 248.46C911.273 249.998 914.726 251.085 917.856 251.719C920.987 252.352 924.07 252.669 927.105 252.669C931.062 252.669 933.917 252.081 935.663 250.904C937.503 249.637 938.423 248.007 938.423 246.016C938.423 244.204 937.825 242.847 936.63 241.942C935.434 241.036 933.688 240.402 931.384 240.04L916.889 237.46C911.187 236.464 906.766 234.427 903.636 231.349C900.6 228.18 899.082 224.151 899.082 219.262C899.082 214.736 900.364 210.843 902.944 207.584C905.524 204.234 909.063 201.699 913.578 199.979C918.179 198.168 923.377 197.263 929.174 197.263C933.319 197.263 937.141 197.625 940.633 198.35C944.133 199.073 947.492 200.251 950.716 201.88C952.368 202.695 953.524 203.781 954.169 205.14C954.9 206.498 955.128 207.901 954.853 209.35C954.672 210.797 954.122 212.111 953.202 213.288C952.281 214.464 951.086 215.234 949.607 215.596C948.231 215.958 946.619 215.777 944.778 215.053C941.829 213.695 939.115 212.744 936.63 212.201C934.145 211.567 931.754 211.251 929.449 211.251C925.312 211.251 922.323 211.929 920.475 213.288C918.635 214.555 917.715 216.184 917.715 218.176C917.715 219.715 918.226 221.028 919.233 222.114C920.341 223.11 922.001 223.789 924.203 224.151L938.706 226.732C944.684 227.727 949.245 229.72 952.368 232.707C955.498 235.604 957.063 239.588 957.063 244.657C957.063 251.537 954.303 256.97 948.781 260.953C943.355 264.846 936.079 266.793 926.964 266.793Z" fill="#0A4EBD"/>
<path d="M313.087 130.721C309.958 130.721 307.564 129.861 305.908 128.141C304.251 126.421 303.423 124.021 303.423 120.944V42.3153C303.423 39.2371 304.297 36.8379 306.046 35.1178C307.887 33.3977 310.372 32.5377 313.501 32.5377C316.262 32.5377 318.425 33.0808 319.99 34.1673C321.647 35.1631 323.165 36.9285 324.547 39.4635L356.438 96.7711H351.745L383.637 39.4635C385.017 36.9285 386.49 35.1631 388.054 34.1673C389.712 33.0808 391.874 32.5377 394.543 32.5377C397.672 32.5377 400.066 33.3977 401.722 35.1178C403.471 36.8379 404.346 39.2371 404.346 42.3153V120.944C404.346 124.021 403.517 126.421 401.861 128.141C400.204 129.861 397.811 130.721 394.681 130.721C391.552 130.721 389.113 129.861 387.364 128.141C385.707 126.421 384.879 124.021 384.879 120.944V65.9445H387.917L362.237 111.166C361.132 112.886 359.936 114.199 358.647 115.104C357.451 115.919 355.84 116.326 353.815 116.326C351.79 116.326 350.134 115.873 348.845 114.968C347.556 114.063 346.406 112.796 345.394 111.166L319.438 65.8086H322.751V120.944C322.751 124.021 321.923 126.421 320.266 128.141C318.701 129.861 316.309 130.721 313.087 130.721ZM438.306 130.585C434.9 130.585 432.277 129.634 430.436 127.734C428.687 125.741 427.813 122.981 427.813 119.449V73.006C427.813 69.3847 428.687 66.6234 430.436 64.7223C432.277 62.7305 434.9 61.7346 438.306 61.7346C441.619 61.7346 444.15 62.7305 445.899 64.7223C447.74 66.6234 448.66 69.3847 448.66 73.006V119.449C448.66 122.981 447.786 125.741 446.037 127.734C444.289 129.634 441.711 130.585 438.306 130.585ZM438.306 50.599C434.44 50.599 431.449 49.739 429.332 48.0189C427.306 46.2081 426.294 43.6732 426.294 40.414C426.294 37.0643 427.306 34.5294 429.332 32.8092C431.449 30.9985 434.44 30.0932 438.306 30.0932C442.171 30.0932 445.117 30.9985 447.141 32.8092C449.166 34.5294 450.179 37.0643 450.179 40.414C450.179 43.6732 449.166 46.2081 447.141 48.0189C445.117 49.739 442.171 50.599 438.306 50.599ZM503.273 130.993C495.91 130.993 489.468 129.59 483.945 126.783C478.514 123.886 474.327 119.812 471.381 114.561C468.436 109.31 466.963 103.109 466.963 95.9563C466.963 90.6145 467.792 85.8161 469.448 81.5612C471.105 77.3064 473.498 73.6851 476.627 70.6974C479.849 67.7098 483.714 65.4464 488.225 63.9075C492.735 62.2779 497.751 61.4631 503.273 61.4631C506.127 61.4631 509.164 61.8252 512.386 62.5494C515.607 63.1832 518.782 64.3149 521.912 65.9445C523.753 66.7593 524.995 67.9361 525.64 69.4752C526.376 70.9238 526.652 72.4629 526.468 74.0925C526.284 75.6315 525.685 77.0348 524.673 78.3022C523.753 79.4794 522.556 80.2942 521.083 80.7464C519.61 81.109 517.954 80.8369 516.113 79.9316C514.364 78.936 512.523 78.2117 510.591 77.7591C508.75 77.3064 507.001 77.08 505.344 77.08C502.583 77.08 500.144 77.5327 498.027 78.438C495.91 79.2529 494.115 80.4751 492.643 82.1047C491.262 83.6439 490.157 85.5904 489.329 87.9444C488.593 90.2975 488.225 93.0141 488.225 96.0924C488.225 102.067 489.697 106.775 492.643 110.215C495.68 113.565 499.914 115.24 505.344 115.24C507.001 115.24 508.75 115.058 510.591 114.697C512.431 114.244 514.272 113.519 516.113 112.524C517.954 111.618 519.61 111.392 521.083 111.845C522.556 112.297 523.706 113.158 524.535 114.425C525.456 115.602 525.961 117.005 526.053 118.635C526.237 120.174 525.961 121.713 525.225 123.252C524.581 124.701 523.385 125.833 521.636 126.647C518.506 128.186 515.377 129.273 512.247 129.907C509.118 130.63 506.127 130.993 503.273 130.993ZM552.223 130.721C548.817 130.721 546.194 129.815 544.353 128.005C542.604 126.194 541.73 123.614 541.73 120.264V42.9942C541.73 39.554 542.604 36.9738 544.353 35.2536C546.194 33.443 548.817 32.5377 552.223 32.5377C555.536 32.5377 558.067 33.443 559.816 35.2536C561.657 36.9738 562.578 39.554 562.578 42.9942V75.3147H560.645C562.762 70.8785 565.891 67.4835 570.033 65.1297C574.267 62.6853 579.053 61.4631 584.391 61.4631C589.821 61.4631 594.286 62.5041 597.783 64.5864C601.281 66.5781 603.904 69.6563 605.652 73.8208C607.401 77.8948 608.276 83.1004 608.276 89.4379V120.264C608.276 123.614 607.356 126.194 605.515 128.005C603.766 129.815 601.189 130.721 597.783 130.721C594.47 130.721 591.892 129.815 590.052 128.005C588.303 126.194 587.428 123.614 587.428 120.264V90.3888C587.428 85.7713 586.554 82.4665 584.805 80.4751C583.149 78.3927 580.571 77.3517 577.074 77.3517C572.656 77.3517 569.112 78.7094 566.443 81.426C563.866 84.1417 562.578 87.7627 562.578 92.2897V120.264C562.578 127.236 559.126 130.721 552.223 130.721ZM652.278 130.993C647.308 130.993 642.844 130.042 638.886 128.141C634.928 126.24 631.845 123.66 629.636 120.4C627.427 117.141 626.322 113.475 626.322 109.401C626.322 104.512 627.611 100.664 630.188 97.8572C632.765 94.9606 636.953 92.9236 642.752 91.7463C648.55 90.4792 656.235 89.8453 665.808 89.8453H673.126V100.438H665.946C661.252 100.438 657.432 100.709 654.487 101.253C651.634 101.705 649.563 102.52 648.274 103.697C647.077 104.873 646.48 106.503 646.48 108.586C646.48 111.121 647.353 113.203 649.103 114.833C650.943 116.462 653.567 117.277 656.972 117.277C659.641 117.277 661.989 116.688 664.013 115.512C666.13 114.244 667.787 112.569 668.984 110.487C670.18 108.314 670.779 105.87 670.779 103.153V87.537C670.779 83.5534 669.858 80.7464 668.017 79.1168C666.176 77.3969 663.047 76.5369 658.629 76.5369C656.143 76.5369 653.428 76.8537 650.483 77.4874C647.63 78.0306 644.454 78.9816 640.957 80.3391C638.932 81.2443 637.137 81.4708 635.572 81.0186C634.008 80.4751 632.811 79.5699 631.983 78.3022C631.155 76.9443 630.74 75.4957 630.74 73.9566C630.74 72.327 631.2 70.788 632.121 69.3394C633.041 67.8003 634.56 66.6687 636.677 65.9445C641.003 64.2243 645.053 63.0474 648.827 62.4136C652.692 61.7799 656.235 61.4631 659.457 61.4631C666.544 61.4631 672.343 62.5041 676.853 64.5864C681.455 66.5781 684.906 69.7016 687.208 73.9566C689.508 78.1212 690.659 83.5078 690.659 90.1167V120.264C690.659 123.614 689.831 126.194 688.174 128.005C686.517 129.815 684.124 130.721 680.994 130.721C677.865 130.721 675.426 129.815 673.678 128.005C672.021 126.194 671.192 123.614 671.192 120.264V115.24L672.159 116.055C671.607 119.132 670.41 121.803 668.569 124.067C666.82 126.24 664.565 127.96 661.804 129.227C659.043 130.404 655.867 130.993 652.278 130.993ZM736.17 130.993C727.979 130.993 721.858 128.775 717.808 124.338C713.758 119.812 711.733 113.112 711.733 104.24V42.9942C711.733 39.554 712.607 36.9738 714.356 35.2536C716.197 33.443 718.821 32.5377 722.226 32.5377C725.54 32.5377 728.071 33.443 729.819 35.2536C731.66 36.9738 732.58 39.554 732.58 42.9942V103.426C732.58 107.137 733.363 109.898 734.927 111.709C736.585 113.429 738.747 114.289 741.417 114.289C742.153 114.289 742.843 114.244 743.488 114.153C744.132 114.063 744.822 114.018 745.559 114.018C747.031 113.836 748.043 114.289 748.596 115.375C749.24 116.371 749.562 118.408 749.562 121.486C749.562 124.203 749.01 126.285 747.905 127.734C746.801 129.092 745.098 129.997 742.797 130.449C741.877 130.54 740.818 130.63 739.621 130.721C738.425 130.902 737.274 130.993 736.17 130.993ZM843.901 130.993C840.032 130.993 836.076 130.676 832.025 130.042C828.069 129.499 824.247 128.684 820.566 127.597C816.979 126.511 813.755 125.153 810.908 123.523C808.878 122.437 807.455 121.034 806.621 119.314C805.795 117.503 805.473 115.692 805.662 113.882C805.937 112.071 806.621 110.487 807.73 109.129C808.925 107.68 810.396 106.775 812.15 106.413C813.991 105.96 816.012 106.277 818.222 107.364C821.997 109.445 826.087 110.984 830.507 111.981C835.022 112.977 839.481 113.475 843.901 113.475C850.618 113.475 855.408 112.479 858.263 110.487C861.11 108.405 862.541 105.824 862.541 102.746C862.541 100.121 861.527 98.0381 859.506 96.4998C857.476 94.9606 853.937 93.648 848.872 92.5611L833.268 89.3018C824.435 87.4914 817.852 84.413 813.527 80.0677C809.295 75.6315 807.18 69.8373 807.18 62.6853C807.18 58.1586 808.139 54.0393 810.074 50.3274C812.009 46.6155 814.722 43.4016 818.222 40.6857C821.722 37.9696 825.859 35.8874 830.649 34.4388C835.525 32.9903 840.865 32.266 846.662 32.266C851.814 32.266 856.879 32.8998 861.849 34.1673C866.82 35.3442 871.193 37.1096 874.968 39.4635C876.809 40.5498 878.051 41.9531 878.696 43.6732C879.428 45.3028 879.656 46.9777 879.38 48.6978C879.2 50.3274 878.507 51.776 877.312 53.0434C876.211 54.3109 874.779 55.1257 873.033 55.4878C871.279 55.85 869.164 55.4426 866.678 54.2656C863.643 52.7265 860.426 51.5949 857.02 50.8707C853.615 50.1464 850.115 49.7842 846.52 49.7842C842.659 49.7842 839.347 50.2821 836.587 51.2781C833.913 52.2739 831.844 53.6772 830.374 55.4878C828.989 57.2985 828.297 59.3808 828.297 61.7346C828.297 64.3601 829.264 66.4876 831.199 68.1172C833.134 69.7468 836.493 71.0595 841.274 72.0555L856.879 75.3147C865.9 77.2158 872.617 80.2942 877.037 84.5491C881.457 88.7136 883.659 94.2363 883.659 101.116C883.659 105.643 882.739 109.762 880.898 113.475C879.058 117.096 876.392 120.219 872.892 122.845C869.4 125.47 865.208 127.507 860.331 128.956C855.455 130.314 849.973 130.993 843.901 130.993ZM845.002 27.5129C842.611 27.5129 840.401 27.015 838.38 26.0192C836.445 24.9327 834.699 23.3031 833.134 21.1304L824.294 9.0442C823.193 7.59563 822.823 6.19236 823.193 4.83436C823.649 3.4764 824.53 2.38998 825.812 1.57518C827.102 0.760379 828.533 0.443512 830.098 0.624576C831.655 0.715109 833.087 1.48464 834.377 2.93318L845.002 14.8835L855.778 2.93318C857.06 1.48464 858.491 0.715109 860.056 0.624576C861.621 0.443512 862.998 0.760379 864.193 1.57518C865.483 2.38998 866.317 3.4764 866.678 4.83436C867.143 6.10183 866.82 7.50509 865.711 9.0442L857.02 21.1304C855.455 23.3031 853.654 24.9327 851.633 26.0192C849.698 27.015 847.488 27.5129 845.002 27.5129ZM911.776 130.721C908.371 130.721 905.744 129.815 903.904 128.005C902.158 126.194 901.285 123.614 901.285 120.264V42.9942C901.285 39.554 902.158 36.9738 903.904 35.2536C905.744 33.443 908.371 32.5377 911.776 32.5377C915.088 32.5377 917.62 33.443 919.366 35.2536C921.207 36.9738 922.127 39.554 922.127 42.9942V90.3888H922.402L942.427 68.5246C944.448 66.2613 946.288 64.5864 947.948 63.5001C949.694 62.3231 951.998 61.7346 954.853 61.7346C957.701 61.7346 959.863 62.4589 961.342 63.9075C962.907 65.3559 963.686 67.1214 963.686 69.2037C963.78 71.1954 962.907 73.2324 961.059 75.3147L939.941 98.5368V90.7962L963.41 117.412C965.156 119.495 965.896 121.577 965.621 123.66C965.432 125.741 964.512 127.462 962.86 128.82C961.2 130.087 959.085 130.721 956.505 130.721C953.375 130.721 950.842 130.132 948.915 128.956C947.075 127.778 945.187 125.968 943.252 123.523L922.402 100.709H922.127V120.264C922.127 127.236 918.674 130.721 911.776 130.721ZM1015.3 130.993C1008.02 130.993 1001.67 129.59 996.239 126.783C990.907 123.976 986.762 119.947 983.812 114.697C980.871 109.445 979.4 103.244 979.4 96.0924C979.4 90.7506 980.226 85.9522 981.885 81.6973C983.537 77.4422 985.936 73.8208 989.066 70.8333C992.283 67.7551 996.105 65.4464 1000.53 63.9075C1004.94 62.2779 1009.86 61.4631 1015.3 61.4631C1022.56 61.4631 1028.87 62.8663 1034.21 65.6728C1039.64 68.4794 1043.83 72.4629 1046.77 77.6232C1049.81 82.7834 1051.33 88.9401 1051.33 96.0924C1051.33 101.524 1050.45 106.368 1048.71 110.623C1047.05 114.878 1044.66 118.544 1041.53 121.623C1038.4 124.701 1034.57 127.055 1030.07 128.684C1025.65 130.223 1020.72 130.993 1015.3 130.993ZM1015.3 115.648C1018.33 115.648 1020.95 114.923 1023.16 113.475C1025.37 112.026 1027.13 109.898 1028.41 107.092C1029.7 104.195 1030.34 100.528 1030.34 96.0924C1030.34 89.4827 1028.97 84.6396 1026.2 81.5612C1023.44 78.3927 1019.8 76.8084 1015.3 76.8084C1012.35 76.8084 1009.73 77.4874 1007.42 78.8455C1005.21 80.2038 1003.47 82.3312 1002.18 85.2279C1000.98 88.0348 1000.38 91.6558 1000.38 96.0924C1000.38 102.701 1001.77 107.635 1004.53 110.894C1007.29 114.063 1010.88 115.648 1015.3 115.648ZM1094.53 130.993C1088.82 130.993 1084.08 129.951 1080.31 127.87C1076.53 125.787 1073.73 122.664 1071.89 118.499C1070.13 114.244 1069.26 108.993 1069.26 102.746V72.0555C1069.26 68.6151 1070.13 66.035 1071.89 64.3149C1073.73 62.5947 1076.3 61.7346 1079.62 61.7346C1082.93 61.7346 1085.51 62.5947 1087.35 64.3149C1089.19 66.035 1090.11 68.6151 1090.11 72.0555V103.29C1090.11 107.273 1090.93 110.26 1092.59 112.252C1094.25 114.153 1096.87 115.104 1100.46 115.104C1104.42 115.104 1107.64 113.746 1110.12 111.03C1112.7 108.223 1113.99 104.557 1113.99 100.03V72.0555C1113.99 68.6151 1114.87 66.035 1116.61 64.3149C1118.45 62.5947 1121.03 61.7346 1124.34 61.7346C1127.75 61.7346 1130.33 62.5947 1132.08 64.3149C1133.92 66.035 1134.84 68.6151 1134.84 72.0555V120.264C1134.84 127.236 1131.48 130.721 1124.76 130.721C1121.45 130.721 1118.92 129.815 1117.16 128.005C1115.42 126.194 1114.54 123.614 1114.54 120.264V111.166L1116.61 116.462C1114.59 121.079 1111.69 124.655 1107.91 127.19C1104.15 129.725 1099.68 130.993 1094.53 130.993ZM1180.93 130.993C1172.74 130.993 1166.62 128.775 1162.57 124.338C1158.52 119.812 1156.49 113.112 1156.49 104.24V42.9942C1156.49 39.554 1157.37 36.9738 1159.12 35.2536C1160.96 33.443 1163.58 32.5377 1166.98 32.5377C1170.3 32.5377 1172.83 33.443 1174.58 35.2536C1176.42 36.9738 1177.34 39.554 1177.34 42.9942V103.426C1177.34 107.137 1178.12 109.898 1179.68 111.709C1181.34 113.429 1183.51 114.289 1186.17 114.289C1186.91 114.289 1187.6 114.244 1188.25 114.153C1188.89 114.063 1189.58 114.018 1190.32 114.018C1191.79 113.836 1192.8 114.289 1193.35 115.375C1194 116.371 1194.32 118.408 1194.32 121.486C1194.32 124.203 1193.77 126.285 1192.66 127.734C1191.56 129.092 1189.86 129.997 1187.56 130.449C1186.64 130.54 1185.57 130.63 1184.38 130.721C1183.18 130.902 1182.03 130.993 1180.93 130.993ZM1230.91 130.993C1225.94 130.993 1221.47 130.042 1217.51 128.141C1213.56 126.24 1210.47 123.66 1208.26 120.4C1206.05 117.141 1204.95 113.475 1204.95 109.401C1204.95 104.512 1206.24 100.664 1208.82 97.8572C1211.4 94.9606 1215.58 92.9236 1221.38 91.7463C1227.18 90.4792 1234.86 89.8453 1244.44 89.8453H1251.76V100.438H1244.58C1239.88 100.438 1236.06 100.709 1233.12 101.253C1230.26 101.705 1228.19 102.52 1226.9 103.697C1225.71 104.873 1225.11 106.503 1225.11 108.586C1225.11 111.121 1225.98 113.203 1227.73 114.833C1229.57 116.462 1232.2 117.277 1235.6 117.277C1238.27 117.277 1240.61 116.688 1242.64 115.512C1244.76 114.244 1246.42 112.569 1247.61 110.487C1248.81 108.314 1249.41 105.87 1249.41 103.153V87.537C1249.41 83.5534 1248.49 80.7464 1246.65 79.1168C1244.81 77.3969 1241.68 76.5369 1237.26 76.5369C1234.77 76.5369 1232.06 76.8537 1229.11 77.4874C1226.26 78.0306 1223.08 78.9816 1219.58 80.3391C1217.56 81.2443 1215.77 81.4708 1214.2 81.0186C1212.64 80.4751 1211.44 79.5699 1210.61 78.3022C1209.78 76.9443 1209.37 75.4957 1209.37 73.9566C1209.37 72.327 1209.83 70.788 1210.75 69.3394C1211.67 67.8003 1213.19 66.6687 1215.3 65.9445C1219.63 64.2243 1223.68 63.0474 1227.46 62.4136C1231.32 61.7799 1234.86 61.4631 1238.09 61.4631C1245.18 61.4631 1250.97 62.5041 1255.48 64.5864C1260.09 66.5781 1263.53 69.7016 1265.84 73.9566C1268.14 78.1212 1269.29 83.5078 1269.29 90.1167V120.264C1269.29 123.614 1268.46 126.194 1266.8 128.005C1265.14 129.815 1262.75 130.721 1259.62 130.721C1256.49 130.721 1254.05 129.815 1252.31 128.005C1250.65 126.194 1249.82 123.614 1249.82 120.264V115.24L1250.79 116.055C1250.23 119.132 1249.04 121.803 1247.2 124.067C1245.45 126.24 1243.19 127.96 1240.43 129.227C1237.67 130.404 1234.49 130.993 1230.91 130.993Z" fill="#0A4EBD"/>
</svg>
