<svg width="360" height="360" viewBox="0 0 360 360" fill="none" xmlns="http://www.w3.org/2000/svg">
<g clip-path="url(#clip0_313_262)">
<path d="M360 0H0V360H360V0Z" fill="#0A4EBD"/>
<path d="M108.791 274.717C102.236 274.717 96.9229 269.478 96.9229 263.014V96.2084C96.9229 89.9477 102.07 84.8726 108.418 84.8726C112.7 84.8726 116.627 87.2189 118.609 90.9613L179.999 206.886L241.39 90.9613C243.372 87.2189 247.299 84.8726 251.58 84.8726C257.929 84.8726 263.076 89.9477 263.076 96.2084V167.949C263.076 174.413 258.554 180.411 252 180.411C245.445 180.411 239.34 174.413 239.34 167.949V142.086L192.082 228.832C189.719 233.168 185.131 235.873 180.14 235.873C175.13 235.873 170.528 233.148 168.174 228.788L120.659 140.786V263.014C120.659 269.478 115.345 274.717 108.791 274.717Z" fill="white"/>
<path d="M263.074 207.143C263.074 200.767 257.761 195.599 251.206 195.599C244.652 195.599 239.338 200.767 239.338 207.143V263.584C239.338 269.959 244.652 275.128 251.206 275.128C257.761 275.128 263.074 269.959 263.074 263.584V207.143Z" fill="white"/>
</g>
<defs>
<clipPath id="clip0_313_262">
<rect width="360" height="360" fill="white"/>
</clipPath>
</defs>
</svg>
